<svg xmlns="http://www.w3.org/2000/svg" viewBox="0 0 860 248" width="860" height="248">
  <defs>
    <radialGradient id="bg" cx="50%" cy="50%" r="60%">
      <stop offset="0%" stop-color="#0a1628"/>
      <stop offset="100%" stop-color="#0d1117"/>
    </radialGradient>
  </defs>

  <!-- Background -->
  <rect width="860" height="248" fill="url(#bg)" rx="8"/>

  <!-- Diffraction rings -->
  <circle cx="430" cy="110" r="30"  fill="none" stroke="#1a3a5c" stroke-width="1.5" opacity="0.7"/>
  <circle cx="430" cy="110" r="55"  fill="none" stroke="#1a3a5c" stroke-width="1.2" opacity="0.6"/>
  <circle cx="430" cy="110" r="82"  fill="none" stroke="#163356" stroke-width="1.0" opacity="0.5"/>
  <circle cx="430" cy="110" r="112" fill="none" stroke="#163356" stroke-width="0.8" opacity="0.4"/>
  <circle cx="430" cy="110" r="145" fill="none" stroke="#0f2440" stroke-width="0.7" opacity="0.35"/>
  <circle cx="430" cy="110" r="180" fill="none" stroke="#0a1a30" stroke-width="0.6" opacity="0.25"/>

  <!-- Bragg spots — ring 1 (blue) -->
  <circle cx="430" cy="80"  r="2.8" fill="#58a6ff" opacity="0.95"/>
  <circle cx="430" cy="140" r="2.8" fill="#58a6ff" opacity="0.95"/>
  <circle cx="400" cy="110" r="2.8" fill="#58a6ff" opacity="0.95"/>
  <circle cx="460" cy="110" r="2.8" fill="#58a6ff" opacity="0.95"/>
  <circle cx="409" cy="89"  r="2.2" fill="#79c0ff" opacity="0.75"/>
  <circle cx="451" cy="89"  r="2.2" fill="#79c0ff" opacity="0.75"/>
  <circle cx="409" cy="131" r="2.2" fill="#79c0ff" opacity="0.75"/>
  <circle cx="451" cy="131" r="2.2" fill="#79c0ff" opacity="0.75"/>

  <!-- Bragg spots — ring 2 (green) -->
  <circle cx="430" cy="55"  r="2.0" fill="#3fb950" opacity="0.65"/>
  <circle cx="430" cy="165" r="2.0" fill="#3fb950" opacity="0.65"/>
  <circle cx="375" cy="110" r="2.0" fill="#3fb950" opacity="0.65"/>
  <circle cx="485" cy="110" r="2.0" fill="#3fb950" opacity="0.65"/>
  <circle cx="391" cy="71"  r="1.6" fill="#3fb950" opacity="0.5"/>
  <circle cx="469" cy="71"  r="1.6" fill="#3fb950" opacity="0.5"/>
  <circle cx="391" cy="149" r="1.6" fill="#3fb950" opacity="0.5"/>
  <circle cx="469" cy="149" r="1.6" fill="#3fb950" opacity="0.5"/>

  <!-- Beamstop -->
  <circle cx="430" cy="110" r="16" fill="#0d1117" opacity="0.97"/>
  <circle cx="430" cy="110" r="7"  fill="#111820" opacity="0.85"/>

  <!-- Title text -->
  <text x="430" y="190" text-anchor="middle"
        font-family="-apple-system, BlinkMacSystemFont, 'Segoe UI', sans-serif"
        font-size="20" font-weight="700" fill="#e6edf3" letter-spacing="-0.3">
    Detector-Agnostic SFX Hitfinder
  </text>
  <text x="430" y="210" text-anchor="middle"
        font-family="-apple-system, BlinkMacSystemFont, 'Segoe UI', sans-serif"
        font-size="12" fill="#8b949e" letter-spacing="0.2">
    Serial Femtosecond X-ray Crystallography · Fromme Lab · Arizona State University
  </text>
</svg>
